<?xml version="1.0" encoding="utf-8"?>
<!-- Generator: Adobe Illustrator 16.0.0, SVG Export Plug-In . SVG Version: 6.00 Build 0)  -->
<!DOCTYPE svg PUBLIC "-//W3C//DTD SVG 1.1//EN" "http://www.w3.org/Graphics/SVG/1.1/DTD/svg11.dtd">
<svg version="1.1" id="Layer_1" xmlns="http://www.w3.org/2000/svg" xmlns:xlink="http://www.w3.org/1999/xlink" x="0px" y="0px"
	 width="30px" height="30px" viewBox="0 0 30 30" enable-background="new 0 0 30 30" xml:space="preserve">
<g>
	<g>
		<g>
			<g>
				<polygon fill="#808080" points="25.101,15.539 25.131,15 29.693,15 29.657,15.778 				"/>
				<polygon fill="#808080" points="25.073,16.073 25.101,15.535 29.657,15.773 29.61,16.55 				"/>
				<polygon fill="#808080" points="24.989,16.602 25.073,16.07 29.611,16.546 29.495,17.318 				"/>
				<path fill="#808080" d="M24.902,17.129c0.02,0.004,0.088-0.53,0.088-0.531l4.506,0.715c0,0-0.111,0.773-0.132,0.77
					L24.902,17.129z"/>
				<polygon fill="#808080" points="24.768,17.646 24.903,17.126 29.365,18.078 29.172,18.836 				"/>
				<path fill="#808080" d="M24.621,18.157c0.018,0.006,0.147-0.515,0.147-0.515l4.405,1.188c-0.001-0.001-0.198,0.754-0.217,0.748
					L24.621,18.157z"/>
				<polygon fill="#808080" points="24.438,18.658 24.623,18.154 28.958,19.574 28.69,20.309 				"/>
				<path fill="#808080" d="M24.232,19.151c0.015,0.006,0.216-0.491,0.206-0.495l4.254,1.648c0,0-0.068,0.184-0.137,0.366
					c-0.082,0.178-0.163,0.354-0.163,0.354L24.232,19.151z"/>
				<polygon fill="#808080" points="24.001,19.633 24.234,19.148 28.395,21.021 28.056,21.725 				"/>
				<path fill="#808080" d="M23.741,20.1c0,0,0.071-0.115,0.142-0.229c0.067-0.116,0.12-0.24,0.12-0.24l4.055,2.091
					c0,0-0.08,0.178-0.177,0.348c-0.101,0.167-0.201,0.334-0.201,0.334L23.741,20.1z"/>
				<polygon fill="#808080" points="23.465,20.557 23.743,20.096 27.683,22.398 27.276,23.064 				"/>
				<path fill="#808080" d="M23.153,20.99c0,0,0.328-0.428,0.313-0.438l3.813,2.507c0.017,0.011-0.451,0.636-0.451,0.636
					L23.153,20.99z"/>
				<polygon fill="#808080" points="22.835,21.421 23.155,20.988 26.83,23.691 26.361,24.315 				"/>
				<polygon fill="#808080" points="22.475,21.817 22.837,21.418 26.364,24.311 25.845,24.893 				"/>
				<path fill="#808080" d="M22.111,22.21c0.011,0.011,0.366-0.396,0.366-0.396l3.371,3.074c0,0-0.521,0.581-0.533,0.569
					L22.111,22.21z"/>
				<polygon fill="#808080" points="21.714,22.568 22.114,22.207 25.319,25.454 24.743,25.98 				"/>
				<path fill="#808080" d="M21.308,22.917c0.011,0.014,0.409-0.352,0.409-0.351l3.03,3.41c0,0-0.582,0.521-0.594,0.507
					L21.308,22.917z"/>
				<polygon fill="#808080" points="20.88,23.236 21.311,22.915 24.158,26.48 23.534,26.947 				"/>
				<path fill="#808080" d="M20.437,23.537c0.008,0.012,0.453-0.291,0.446-0.303l2.656,3.71c0.008,0.013-0.638,0.451-0.647,0.438
					L20.437,23.537z"/>
				<polygon fill="#808080" points="19.98,23.814 20.44,23.534 22.897,27.379 22.23,27.783 				"/>
				<path fill="#808080" d="M19.507,24.061c0,0,0.484-0.233,0.478-0.248l2.25,3.969c0,0-0.162,0.109-0.34,0.191
					c-0.176,0.086-0.353,0.172-0.353,0.172L19.507,24.061z"/>
				<polygon fill="#808080" points="19.026,24.294 19.51,24.06 21.547,28.142 20.843,28.479 				"/>
				<path fill="#808080" d="M18.528,24.484c0,0,0.509-0.174,0.501-0.191l1.818,4.185c0.008,0.019-0.729,0.283-0.729,0.283
					L18.528,24.484z"/>
				<polygon fill="#808080" points="18.028,24.67 18.532,24.482 20.126,28.758 19.391,29.024 				"/>
				<polygon fill="#808080" points="17.511,24.802 18.031,24.669 19.395,29.023 18.639,29.223 				"/>
				<path fill="#808080" d="M16.992,24.933c0.003,0.012,0.521-0.131,0.521-0.132l1.131,4.421c0,0-0.19,0.048-0.38,0.097
					c-0.189,0.05-0.381,0.088-0.381,0.089L16.992,24.933z"/>
				<polygon fill="#808080" points="16.465,25.011 16.997,24.932 17.891,29.406 17.119,29.526 				"/>
				<path fill="#808080" d="M15.936,25.083c0.003,0.019,0.532-0.073,0.532-0.073l0.656,4.516c0,0-0.771,0.122-0.772,0.101
					L15.936,25.083z"/>
				<polygon fill="#808080" points="15.4,25.107 15.938,25.082 16.355,29.626 15.577,29.667 				"/>
				<path fill="#808080" d="M14.864,25.123c0,0.018,0.539-0.016,0.539-0.016l0.179,4.56c0,0-0.778,0.038-0.778,0.018L14.864,25.123z
					"/>
				<polygon fill="#808080" points="14.33,25.095 14.867,25.123 14.808,29.685 14.031,29.647 				"/>
				<path fill="#808080" d="M13.796,25.052c-0.002,0.018,0.537,0.042,0.537,0.043l-0.297,4.553c0,0-0.777-0.046-0.776-0.065
					L13.796,25.052z"/>
				<polygon fill="#808080" points="13.268,24.97 13.799,25.052 13.264,29.583 12.493,29.466 				"/>
				<path fill="#808080" d="M12.744,24.868c0,0,0.129,0.04,0.261,0.063c0.133,0.02,0.267,0.039,0.267,0.039l-0.774,4.496
					c0,0-0.193-0.03-0.386-0.061c-0.192-0.035-0.381-0.089-0.381-0.089L12.744,24.868z"/>
				<polygon fill="#808080" points="12.228,24.735 12.747,24.869 11.736,29.318 10.98,29.124 				"/>
				<path fill="#808080" d="M11.719,24.575c-0.004,0.012,0.508,0.176,0.513,0.161l-1.246,4.389c0,0-0.188-0.051-0.377-0.102
					c-0.184-0.066-0.369-0.133-0.369-0.133L11.719,24.575z"/>
				<polygon fill="#808080" points="11.218,24.393 11.722,24.576 10.244,28.893 9.512,28.624 				"/>
				<path fill="#808080" d="M10.73,24.175c0,0,0.484,0.234,0.491,0.219l-1.705,4.232c-0.007,0.018-0.715-0.316-0.715-0.316
					L10.73,24.175z"/>
				<polygon fill="#808080" points="10.248,23.944 10.733,24.177 8.806,28.312 8.102,27.971 				"/>
				<path fill="#808080" d="M9.789,23.673c0,0,0.455,0.29,0.464,0.273l-2.143,4.028c-0.01,0.018-0.675-0.395-0.675-0.395
					L9.789,23.673z"/>
				<polygon fill="#808080" points="9.33,23.396 9.792,23.675 7.438,27.583 6.772,27.174 				"/>
				<polygon fill="#808080" points="8.904,23.074 9.334,23.399 6.778,27.179 6.151,26.713 				"/>
				<path fill="#808080" d="M8.48,22.746c-0.011,0.015,0.427,0.33,0.427,0.33l-2.751,3.64c0,0-0.628-0.466-0.616-0.48L8.48,22.746z"
					/>
				<polygon fill="#808080" points="8.085,22.386 8.483,22.75 5.544,26.239 4.965,25.715 				"/>
				<path fill="#808080" d="M7.702,22.012c0,0.001,0.084,0.106,0.186,0.196c0.1,0.09,0.201,0.181,0.201,0.181L4.97,25.72
					c0,0-0.144-0.133-0.288-0.265s-0.271-0.281-0.27-0.281L7.702,22.012z"/>
				<polygon fill="#808080" points="7.342,21.616 7.705,22.016 4.417,25.179 3.891,24.601 				"/>
				<path fill="#808080" d="M7.005,21.201c-0.009,0.007,0.329,0.428,0.34,0.418l-3.45,2.986c0,0-0.129-0.146-0.258-0.293
					c-0.118-0.156-0.235-0.312-0.235-0.312L7.005,21.201z"/>
				<polygon fill="#808080" points="6.684,20.773 7.007,21.205 3.406,24.006 2.938,23.379 				"/>
				<path fill="#808080" d="M6.396,20.323c0,0,0.275,0.463,0.29,0.453l-3.745,2.607c-0.016,0.011-0.423-0.655-0.423-0.655
					L6.396,20.323z"/>
				<polygon fill="#808080" points="6.117,19.867 6.398,20.327 2.522,22.733 2.118,22.064 				"/>
				<path fill="#808080" d="M5.883,19.388c0,0,0.226,0.488,0.236,0.483l-3.998,2.197c0,0-0.093-0.171-0.177-0.348
					c-0.085-0.176-0.17-0.352-0.17-0.352L5.883,19.388z"/>
				<polygon fill="#808080" points="5.652,18.906 5.884,19.391 1.775,21.374 1.443,20.667 				"/>
				<polygon fill="#808080" points="5.471,18.404 5.654,18.909 1.445,20.672 1.175,19.939 				"/>
				<path fill="#808080" d="M5.297,17.9c-0.018,0.005,0.175,0.507,0.175,0.507l-4.296,1.537c0,0-0.271-0.733-0.251-0.74L5.297,17.9z
					"/>
				<polygon fill="#808080" points="5.166,17.383 5.298,17.903 0.927,19.21 0.73,18.453 				"/>
				<path fill="#808080" d="M5.05,16.861c-0.017,0.004,0.117,0.524,0.117,0.525l-4.435,1.071c0,0-0.048-0.189-0.096-0.38
					c-0.052-0.188-0.072-0.384-0.072-0.384L5.05,16.861z"/>
				<polygon fill="#808080" points="4.97,16.334 5.05,16.866 0.565,17.701 0.446,16.929 				"/>
				<path fill="#808080" d="M4.913,15.802c-0.016,0.002,0.047,0.537,0.058,0.536l-4.523,0.597c0,0-0.028-0.194-0.057-0.388
					c-0.013-0.194-0.026-0.389-0.026-0.389L4.913,15.802z"/>
				<polygon fill="#808080" points="4.886,15.268 4.913,15.807 0.364,16.164 0.325,15.386 				"/>
				<path fill="#808080" d="M4.886,14.731c-0.015,0-0.015,0.54,0,0.54l-4.561,0.121c-0.017,0-0.017-0.78,0-0.78L4.886,14.731z"/>
				<polygon fill="#818181" points="4.899,14.484 4.872,15.024 0.309,15.034 0.342,14.254 				"/>
				<polygon fill="#828282" points="4.911,14.238 4.883,14.777 0.322,14.678 0.361,13.899 				"/>
				<polygon fill="#838383" points="4.921,13.99 4.896,14.53 0.339,14.321 0.381,13.542 				"/>
				<path fill="#848484" d="M4.957,13.748c0,0-0.027,0.132-0.037,0.267c-0.006,0.135-0.012,0.27-0.012,0.27l-4.551-0.318
					c0,0,0.011-0.194,0.021-0.389c0.015-0.194,0.05-0.387,0.05-0.387L4.957,13.748z"/>
				<path fill="#858585" d="M4.995,13.504c0,0-0.093,0.53-0.076,0.533l-4.542-0.428c-0.019-0.001,0.105-0.773,0.105-0.773
					L4.995,13.504z"/>
				<polygon fill="#868686" points="5.032,13.26 4.95,13.792 0.419,13.254 0.537,12.481 				"/>
				<polygon fill="#878787" points="5.067,13.017 4.988,13.549 0.472,12.9 0.592,12.128 				"/>
				<path fill="#888888" d="M5.124,12.776c-0.017-0.003-0.098,0.529-0.099,0.529l-4.499-0.758c0,0,0.03-0.193,0.061-0.386
					c0.027-0.194,0.085-0.382,0.085-0.382L5.124,12.776z"/>
				<path fill="#898989" d="M5.186,12.539c0,0-0.144,0.519-0.125,0.523l-4.479-0.867C0.561,12.19,0.76,11.433,0.76,11.433
					L5.186,12.539z"/>
				<polygon fill="#8A8A8A" points="5.247,12.3 5.112,12.822 0.655,11.846 0.849,11.086 				"/>
				<polygon fill="#8B8B8B" points="5.307,12.063 5.175,12.583 0.743,11.498 0.939,10.741 				"/>
				<path fill="#8C8C8C" d="M5.385,11.829c-0.017-0.005-0.149,0.517-0.149,0.517l-4.404-1.194c0,0,0.201-0.756,0.219-0.751
					L5.385,11.829z"/>
				<path fill="#8D8D8D" d="M5.471,11.598c0,0-0.192,0.503-0.175,0.508l-4.373-1.302c-0.02-0.006,0.251-0.741,0.251-0.741
					L5.471,11.598z"/>
				<polygon fill="#8E8E8E" points="5.555,11.367 5.369,11.872 1.029,10.464 1.297,9.729 				"/>
				<polygon fill="#8F8F8F" points="5.638,11.135 5.455,11.641 1.151,10.127 1.421,9.392 				"/>
				<path fill="#909090" d="M5.738,10.91c-0.016-0.006-0.199,0.5-0.199,0.5l-4.266-1.62c0,0,0.275-0.734,0.292-0.727L5.738,10.91z"
					/>
				<path fill="#919191" d="M5.846,10.689c0,0-0.24,0.482-0.223,0.489L1.398,9.455C1.38,9.447,1.72,8.742,1.72,8.742L5.846,10.689z"
					/>
				<polygon fill="#929292" points="5.952,10.468 5.717,10.952 1.537,9.126 1.875,8.42 				"/>
				<polygon fill="#939393" points="6.058,10.246 5.826,10.731 1.691,8.803 2.031,8.1 				"/>
				<path fill="#949494" d="M6.18,10.031c-0.015-0.008-0.247,0.478-0.247,0.478L1.846,8.48c0,0,0.345-0.702,0.361-0.693L6.18,10.031
					z"/>
				<path fill="#959595" d="M6.309,9.821c0,0-0.286,0.457-0.271,0.466L2.002,8.158c-0.017-0.009,0.39-0.677,0.39-0.677L6.309,9.821z
					"/>
				<polygon fill="#969696" points="6.436,9.61 6.155,10.07 2.172,7.845 2.578,7.176 				"/>
				<polygon fill="#979797" points="6.563,9.398 6.284,9.861 2.356,7.539 2.765,6.871 				"/>
				<path fill="#989898" d="M6.706,9.198C6.692,9.189,6.412,9.651,6.412,9.651l-3.87-2.417c0,0,0.413-0.666,0.428-0.655L6.706,9.198
					z"/>
				<path fill="#999999" d="M6.854,9.001c0,0-0.33,0.427-0.314,0.437l-3.81-2.51C2.713,6.917,3.183,6.292,3.183,6.292L6.854,9.001z"
					/>
				<polygon fill="#9A9A9A" points="7.001,8.803 6.678,9.235 2.93,6.633 3.397,6.006 				"/>
				<polygon fill="#9B9B9B" points="7.148,8.605 6.826,9.039 3.143,6.346 3.612,5.722 				"/>
				<path fill="#9C9C9C" d="M7.31,8.42C7.297,8.41,6.974,8.841,6.974,8.841L3.356,6.061c0,0,0.117-0.156,0.235-0.312
					c0.115-0.158,0.253-0.297,0.253-0.297L7.31,8.42z"/>
				<path fill="#9D9D9D" d="M7.477,8.238c0,0-0.371,0.393-0.356,0.405L3.572,5.775C3.556,5.762,4.085,5.187,4.085,5.187L7.477,8.238
					z"/>
				<polygon fill="#9E9E9E" points="7.643,8.054 7.278,8.454 3.8,5.501 4.326,4.922 				"/>
				<polygon fill="#9F9F9F" points="7.807,7.871 7.446,8.272 4.04,5.236 4.567,4.659 				"/>
				<path fill="#A0A0A0" d="M7.988,7.703c0,0-0.106,0.084-0.196,0.186c-0.09,0.101-0.181,0.201-0.181,0.201L4.28,4.972
					c0,0,0.132-0.145,0.265-0.289s0.282-0.271,0.282-0.271L7.988,7.703z"/>
				<path fill="#A1A1A1" d="M8.17,7.538c0,0-0.407,0.354-0.394,0.367L4.521,4.708C4.507,4.694,5.089,4.173,5.089,4.173L8.17,7.538z"
					/>
				<polygon fill="#A2A2A2" points="8.353,7.372 7.954,7.733 4.777,4.458 5.354,3.933 				"/>
				<polygon fill="#A3A3A3" points="8.535,7.204 8.137,7.568 5.041,4.218 5.62,3.694 				"/>
				<path fill="#A4A4A4" d="M8.731,7.055c0,0-0.112,0.075-0.213,0.164C8.419,7.311,8.32,7.402,8.32,7.402L5.305,3.977
					c0,0,0.145-0.13,0.29-0.261c0.147-0.127,0.307-0.24,0.307-0.24L8.731,7.055z"/>
				<path fill="#A5A5A5" d="M8.93,6.907c0,0-0.441,0.315-0.43,0.329L5.569,3.739C5.557,3.725,6.189,3.26,6.189,3.26L8.93,6.907z"/>
				<polygon fill="#A6A6A6" points="9.127,6.759 8.695,7.082 5.85,3.515 6.475,3.046 				"/>
				<polygon fill="#A7A7A7" points="9.323,6.61 8.893,6.936 6.135,3.301 6.762,2.834 				"/>
				<path fill="#A8A8A8" d="M9.533,6.482c0,0-0.118,0.065-0.229,0.142C9.197,6.706,9.089,6.788,9.089,6.788l-2.669-3.7
					c0,0,0.157-0.116,0.314-0.233c0.161-0.111,0.33-0.209,0.33-0.209L9.533,6.482z"/>
				<path fill="#A9A9A9" d="M9.744,6.355c0,0-0.466,0.271-0.458,0.283L6.707,2.875C6.698,2.861,7.369,2.459,7.369,2.459L9.744,6.355
					z"/>
				<polygon fill="#AAAAAA" points="9.954,6.227 9.495,6.506 7.009,2.68 7.675,2.275 				"/>
				<polygon fill="#ABABAB" points="10.165,6.097 9.705,6.379 7.313,2.494 7.983,2.09 				"/>
				<path fill="#ACACAC" d="M10.387,5.991c-0.007-0.013-0.477,0.25-0.471,0.26L7.618,2.309c0,0,0.168-0.101,0.335-0.201
					c0.175-0.088,0.35-0.175,0.35-0.175L10.387,5.991z"/>
				<path fill="#ADADAD" d="M10.608,5.885c0,0-0.489,0.226-0.483,0.237L7.924,2.125c0,0,0.171-0.095,0.348-0.178
					c0.176-0.085,0.352-0.17,0.352-0.17L10.608,5.885z"/>
				<polygon fill="#AEAEAE" points="10.831,5.777 10.346,6.01 8.244,1.961 8.949,1.621 				"/>
				<polygon fill="#AFAFAF" points="11.052,5.668 10.568,5.904 8.565,1.805 9.271,1.468 				"/>
				<path fill="#B0B0B0" d="M11.283,5.585c-0.006-0.014-0.498,0.202-0.494,0.212L8.887,1.65c0,0,0.177-0.084,0.354-0.168
					c0.183-0.07,0.365-0.14,0.365-0.14L11.283,5.585z"/>
				<path fill="#B1B1B1" d="M11.514,5.501c0,0-0.509,0.177-0.504,0.188l-1.8-4.192c0,0,0.18-0.077,0.364-0.143
					c0.184-0.068,0.368-0.136,0.368-0.136L11.514,5.501z"/>
				<polygon fill="#B2B2B2" points="11.744,5.417 11.239,5.601 9.542,1.366 10.277,1.096 				"/>
				<polygon fill="#B3B3B3" points="11.976,5.33 11.47,5.518 9.877,1.242 10.616,0.975 				"/>
				<path fill="#B4B4B4" d="M12.214,5.269c-0.004-0.015-0.515,0.153-0.512,0.163l-1.486-4.313c0,0,0.184-0.066,0.368-0.133
					c0.188-0.052,0.377-0.104,0.377-0.104L12.214,5.269z"/>
				<path fill="#B5B5B5" d="M12.452,5.208c0,0-0.524,0.125-0.52,0.138l-1.381-4.349c0,0,0.186-0.06,0.376-0.107
					c0.189-0.049,0.379-0.099,0.379-0.099L12.452,5.208z"/>
				<polygon fill="#B6B6B6" points="12.69,5.147 12.168,5.28 10.895,0.899 11.653,0.704 				"/>
				<polygon fill="#B7B7B7" points="12.927,5.084 12.407,5.22 11.24,0.809 11.999,0.617 				"/>
				<path fill="#B8B8B8" d="M13.172,5.045c0,0-0.135,0.013-0.266,0.044c-0.13,0.035-0.26,0.069-0.26,0.069L11.589,0.72
					c0,0,0.19-0.048,0.38-0.095c0.19-0.044,0.385-0.068,0.385-0.068L13.172,5.045z"/>
				<path fill="#B9B9B9" d="M13.415,5.009c0,0-0.535,0.069-0.531,0.087l-0.948-4.463c-0.004-0.02,0.771-0.131,0.771-0.131
					L13.415,5.009z"/>
				<polygon fill="#BABABA" points="13.658,4.971 13.125,5.052 12.286,0.567 13.059,0.448 				"/>
				<polygon fill="#BBBBBB" points="13.901,4.933 13.369,5.016 12.639,0.512 13.413,0.396 				"/>
				<path fill="#BCBCBC" d="M14.148,4.915c-0.002-0.018-0.537,0.064-0.537,0.063l-0.62-4.52c0,0,0.194-0.029,0.388-0.058
					c0.194-0.032,0.39-0.033,0.39-0.033L14.148,4.915z"/>
				<path fill="#BDBDBD" d="M14.393,4.904c0,0-0.541,0.017-0.539,0.036l-0.51-4.534c-0.001-0.021,0.778-0.057,0.778-0.057
					L14.393,4.904z"/>
				<polygon fill="#BEBEBE" points="14.641,4.891 14.102,4.917 13.702,0.372 14.481,0.331 				"/>
				<polygon fill="#BFBFBF" points="14.888,4.877 14.348,4.906 14.058,0.353 14.837,0.314 				"/>
				<path fill="#C0C0C0" d="M15.136,4.878c0-0.019-0.54,0.015-0.54,0.015l-0.18-4.559c0,0,0.78-0.039,0.78-0.018L15.136,4.878z"/>
				<path fill="#C0C0C0" d="M15.382,4.892c0,0-0.54-0.03-0.54-0.013l-0.07-4.562c0-0.02,0.78,0.016,0.78,0.016L15.382,4.892z"/>
				<polygon fill="#C1C1C1" points="15.628,4.905 15.088,4.875 15.128,0.313 15.907,0.351 				"/>
				<polygon fill="#C2C2C2" points="15.875,4.916 15.335,4.89 15.484,0.33 16.264,0.37 				"/>
				<path fill="#C3C3C3" d="M16.12,4.936c0.002-0.02-0.539-0.034-0.539-0.034l0.259-4.555c0,0,0.78,0.032,0.778,0.053L16.12,4.936z"
					/>
				<path fill="#C4C4C4" d="M16.365,4.975c0,0-0.134-0.021-0.267-0.042c-0.134-0.021-0.27-0.019-0.27-0.019l0.369-4.548
					c0,0,0.195,0.003,0.389,0.03c0.193,0.029,0.387,0.057,0.387,0.057L16.365,4.975z"/>
				<polygon fill="#C5C5C5" points="16.607,5.012 16.075,4.929 16.553,0.391 17.327,0.507 				"/>
				<polygon fill="#C6C6C6" points="16.852,5.048 16.318,4.968 16.906,0.443 17.68,0.562 				"/>
				<path fill="#C7C7C7" d="M17.095,5.09c0.003-0.012-0.531-0.084-0.531-0.084l0.698-4.508c0,0,0.193,0.03,0.387,0.06
					c0.193,0.028,0.385,0.068,0.385,0.068L17.095,5.09z"/>
				<path fill="#C8C8C8" d="M17.331,5.152c0.002-0.012-0.523-0.126-0.526-0.111l0.808-4.49c0,0,0.192,0.032,0.386,0.064
					c0.189,0.048,0.379,0.096,0.379,0.096L17.331,5.152z"/>
				<polygon fill="#C9C9C9" points="17.57,5.214 17.05,5.078 17.967,0.608 18.726,0.8 				"/>
				<polygon fill="#CACACA" points="17.809,5.274 17.287,5.141 18.313,0.695 19.071,0.891 				"/>
				<polygon fill="#CBCBCB" points="18.046,5.337 17.524,5.203 18.66,0.783 19.416,0.985 				"/>
				<path fill="#CCCCCC" d="M18.275,5.424c0.005-0.013-0.508-0.175-0.513-0.161l1.243-4.39c0.005-0.016,0.751,0.219,0.746,0.233
					L18.275,5.424z"/>
				<polygon fill="#CDCDCD" points="18.506,5.509 18.001,5.322 19.352,0.964 20.088,1.229 				"/>
				<polygon fill="#CECECE" points="18.739,5.593 18.233,5.408 19.69,1.084 20.426,1.354 				"/>
				<polygon fill="#CFCFCF" points="18.971,5.679 18.464,5.493 20.026,1.207 20.761,1.483 				"/>
				<path fill="#D0D0D0" d="M19.189,5.787c0.006-0.013-0.487-0.223-0.493-0.209l1.668-4.247c0.006-0.015,0.723,0.29,0.717,0.304
					L19.189,5.787z"/>
				<polygon fill="#D1D1D1" points="19.412,5.895 18.928,5.66 20.698,1.455 21.405,1.791 				"/>
				<polygon fill="#D2D2D2" points="19.635,6 19.149,5.767 21.022,1.606 21.727,1.946 				"/>
				<polygon fill="#D3D3D3" points="19.855,6.109 19.37,5.875 21.344,1.761 22.046,2.107 				"/>
				<path fill="#D4D4D4" d="M20.064,6.238c0.006-0.012-0.466-0.271-0.473-0.258l2.074-4.064c0.008-0.014,0.693,0.361,0.686,0.374
					L20.064,6.238z"/>
				<polygon fill="#D5D5D5" points="20.274,6.366 19.816,6.086 21.989,2.074 22.657,2.476 				"/>
				<polygon fill="#D6D6D6" points="20.486,6.494 20.025,6.214 22.296,2.256 22.964,2.663 				"/>
				<polygon fill="#D7D7D7" points="20.695,6.624 20.235,6.343 22.601,2.441 23.265,2.854 				"/>
				<path fill="#D8D8D8" d="M20.892,6.773c0.007-0.01-0.438-0.315-0.445-0.303l2.459-3.843c0,0,0.166,0.104,0.332,0.207
					c0.157,0.116,0.314,0.232,0.314,0.232L20.892,6.773z"/>
				<polygon fill="#D9D9D9" points="21.089,6.921 20.657,6.596 23.21,2.814 23.838,3.279 				"/>
				<polygon fill="#DADADA" points="21.288,7.068 20.855,6.746 23.499,3.027 24.125,3.495 				"/>
				<path fill="#DBDBDB" d="M21.482,7.219c0.008-0.009-0.43-0.326-0.43-0.326l2.732-3.653c0,0,0.156,0.117,0.313,0.234
					c0.157,0.116,0.308,0.241,0.308,0.241L21.482,7.219z"/>
				<path fill="#DCDCDC" d="M21.664,7.386c0.007-0.008-0.404-0.357-0.414-0.346l2.82-3.586c0,0,0.154,0.12,0.31,0.239
					c0.145,0.13,0.29,0.261,0.29,0.261L21.664,7.386z"/>
				<polygon fill="#DDDDDD" points="21.846,7.552 21.448,7.187 24.354,3.67 24.934,4.194 				"/>
				<polygon fill="#DEDEDE" points="22.028,7.717 21.629,7.354 24.619,3.908 25.197,4.434 				"/>
				<path fill="#DFDFDF" d="M22.209,7.888c0.01-0.01-0.396-0.366-0.396-0.366l3.073-3.372c0,0,0.582,0.522,0.57,0.534L22.209,7.888z
					"/>
				<path fill="#E0E0E0" d="M22.373,8.071c0,0-0.09-0.101-0.181-0.201c-0.094-0.097-0.197-0.184-0.197-0.184l3.153-3.297
					c0.001,0,0.148,0.128,0.284,0.268c0.132,0.144,0.265,0.288,0.265,0.288L22.373,8.071z"/>
				<polygon fill="#E1E1E1" points="22.538,8.254 22.177,7.853 25.409,4.633 25.937,5.209 				"/>
				<polygon fill="#E2E2E2" points="22.706,8.437 22.343,8.038 25.652,4.897 26.178,5.476 				"/>
				<path fill="#E3E3E3" d="M22.866,8.624c0.015-0.012-0.358-0.403-0.358-0.403l3.385-3.059c0,0,0.531,0.574,0.516,0.586
					L22.866,8.624z"/>
				<path fill="#E4E4E4" d="M23.013,8.822c0,0-0.08-0.109-0.16-0.217c-0.082-0.107-0.178-0.203-0.179-0.203l3.458-2.977
					c0,0,0.136,0.141,0.256,0.295c0.118,0.156,0.235,0.312,0.235,0.312L23.013,8.822z"/>
				<polygon fill="#E5E5E5" points="23.16,9.019 22.839,8.585 26.367,5.693 26.837,6.318 				"/>
				<polygon fill="#E6E6E6" points="23.309,9.215 22.984,8.784 26.582,5.978 27.05,6.604 				"/>
				<path fill="#E7E7E7" d="M23.45,9.419c0.016-0.011-0.317-0.437-0.317-0.437l3.665-2.717c0,0,0.473,0.623,0.456,0.634L23.45,9.419
					z"/>
				<path fill="#E8E8E8" d="M23.576,9.63c0,0-0.069-0.116-0.139-0.231c-0.068-0.116-0.156-0.219-0.156-0.219l3.729-2.628
					c0,0,0.123,0.152,0.225,0.319c0.103,0.167,0.205,0.333,0.205,0.333L23.576,9.63z"/>
				<polygon fill="#E9E9E9" points="23.704,9.84 23.426,9.378 27.218,6.841 27.626,7.509 				"/>
				<polygon fill="#EAEAEA" points="23.834,10.051 23.552,9.589 27.404,7.146 27.812,7.816 				"/>
				<path fill="#EBEBEB" d="M23.952,10.264C23.969,10.255,23.68,9.8,23.68,9.8l3.911-2.35c0,0,0.41,0.666,0.392,0.676L23.952,10.264
					z"/>
				<path fill="#ECECEC" d="M24.059,10.488c-0.001,0-0.235-0.485-0.25-0.477l3.968-2.253c0,0,0.108,0.163,0.192,0.34
					c0.086,0.176,0.172,0.352,0.172,0.352L24.059,10.488z"/>
				<polygon fill="#EDEDED" points="24.165,10.709 23.933,10.224 27.954,8.067 28.295,8.771 				"/>
				<polygon fill="#EEEEEE" points="24.272,10.931 24.038,10.446 28.11,8.388 28.449,9.094 				"/>
				<path fill="#EFEFEF" d="M24.37,11.156c0.018-0.007-0.226-0.489-0.226-0.489l4.121-1.957c0,0,0.344,0.703,0.324,0.711
					L24.37,11.156z"/>
				<path fill="#F0F0F0" d="M24.454,11.389c-0.001,0-0.186-0.505-0.201-0.499l4.168-1.855c0,0,0.093,0.172,0.158,0.357
					c0.068,0.183,0.137,0.367,0.137,0.367L24.454,11.389z"/>
				<polygon fill="#F1F1F1" points="24.538,11.619 24.355,11.113 28.567,9.36 28.839,10.094 				"/>
				<polygon fill="#F2F2F2" points="24.624,11.85 24.438,11.344 28.691,9.695 28.96,10.431 				"/>
				<path fill="#F3F3F3" d="M24.699,12.083c0.019-0.006-0.177-0.508-0.177-0.508l4.293-1.545c0,0,0.273,0.734,0.254,0.74
					L24.699,12.083z"/>
				<path fill="#F4F4F4" d="M24.759,12.321c0,0-0.135-0.519-0.15-0.514l4.329-1.438c0,0,0.075,0.181,0.123,0.37
					c0.05,0.188,0.099,0.377,0.099,0.377L24.759,12.321z"/>
				<polygon fill="#F5F5F5" points="24.82,12.561 24.688,12.039 29.052,10.707 29.249,11.464 				"/>
				<polygon fill="#F6F6F6" points="24.883,12.798 24.748,12.277 29.143,11.052 29.337,11.811 				"/>
				<path fill="#F7F7F7" d="M24.937,13.038c0.019-0.004-0.128-0.522-0.128-0.522l4.424-1.117c0,0,0.202,0.757,0.182,0.761
					L24.937,13.038z"/>
				<path fill="#F8F8F8" d="M24.972,13.281c0,0-0.019-0.133-0.038-0.267c-0.021-0.133-0.063-0.262-0.063-0.262l4.449-1.008
					c0,0,0.055,0.188,0.088,0.381c0.03,0.193,0.061,0.386,0.061,0.386L24.972,13.281z"/>
				<polygon fill="#F9F9F9" points="25.009,13.524 24.93,12.991 29.403,12.092 29.523,12.865 				"/>
				<polygon fill="#FAFAFA" points="25.047,13.769 24.966,13.236 29.459,12.447 29.576,13.221 				"/>
				<path fill="#FBFBFB" d="M25.08,14.013c0.012-0.001-0.078-0.533-0.078-0.533l4.512-0.68c0,0,0.029,0.193,0.058,0.387
					c0.031,0.193,0.051,0.387,0.051,0.387L25.08,14.013z"/>
				<path fill="#FCFCFC" d="M25.091,14.259c0.012-0.001-0.035-0.539-0.051-0.537l4.526-0.57c0,0,0.027,0.194,0.054,0.387
					c0.011,0.195,0.021,0.39,0.021,0.39L25.091,14.259z"/>
				<polygon fill="#FDFDFD" points="25.104,14.507 25.078,13.966 29.618,13.506 29.66,14.288 				"/>
				<polygon fill="#FEFEFE" points="25.116,14.754 25.089,14.214 29.638,13.864 29.678,14.644 				"/>
				<polygon fill="#FFFFFF" points="25.131,15 25.101,14.46 29.657,14.22 29.693,15 				"/>
			</g>
		</g>
	</g>
</g>
</svg>
